<svg xmlns="http://www.w3.org/2000/svg" width="310" height="135" style="enable-background:new 0 0 310 135">
  <path fill-rule="evenodd" d="M288.77 104.32h-8.06V58.7h8.06v36.5L310 81.81v9l-21.23 13.51zm-25.02 0L258.5 92.1 233 104.32h-8.12l19.47-45.63h8.42l9.94 23.36 9.52-4.62v8.03l-6.71 3.23 6.71 15.63h-8.48zM248.5 68.55l-11 25.55 18.12-8.7-7.13-16.85zm-42.74 35.77h-3.49l-19.46-45.63h8.48l15.2 35.65 15.2-35.66h8.49l-19.47 45.64h-4.95zm-52.85-7.6h8.53V66.3h-8.53v-7.6H178v7.6h-8.52v30.42H178v7.6h-25.1v-7.6zm-17.72 7.6h-8.05V66.3h-12.08v-7.6h32.21v7.6h-12.08v38.02zm-33.8-57.72h-8.05V.97h28.55v7.6h-20.5v11.38h20.5v7.6h-20.5V46.6zm9.12 20.73l-5.85 5.6c-1.71-3.4-4.58-7.49-8.48-7.49-3.3 0-5.86 2.13-5.86 5.6 0 3.35 4.27 5.23 8.78 7.42 5.37 2.62 11.54 5.85 11.54 13.45 0 7.9-5.92 13.32-14.4 13.32-5.98 0-12.27-4.68-14.52-9.6l5.8-5.6c1.64 3.46 4.93 7.48 8.84 7.48 3.35 0 6.1-1.89 6.1-5.42 0-2.98-3.54-4.56-7.75-6.69-5.43-2.74-12.45-6.08-12.45-14.3 0-7.6 5.8-13.32 14.04-13.32 5.98 0 11.95 4.68 14.21 9.55zM70.17 46.6h-8.05V27.56h-8.06v-7.6h8.06v-19h8.3l10.37 9.25v9.43l-10.62-9.37v9.67h16.1v7.6h-16.1V46.6zm-46.31.97A23.62 23.62 0 0 1 0 23.8 23.62 23.62 0 0 1 23.86-.01 23.63 23.63 0 0 1 47.7 23.8a23.63 23.63 0 0 1-23.85 23.78zm0-40.09a16.11 16.11 0 0 0-16.23 16.3c0 9.2 7.2 16.25 16.23 16.25 9.03 0 16.29-7.06 16.29-16.24 0-9.2-7.26-16.3-16.3-16.3zM7.66 121.05a51.21 51.21 0 0 1-.14 3.84l6.08-6.5h4.46l-6.28 6.52 6.67 9.7H14.1l-4.96-7.35-1.49 1.55v5.8H3.93v-16.22h3.72v2.66zm25.33-43.38v7.6H12.5v19.05H4.44V58.7H33v7.6H12.5v11.38H33zm-4.17 40.72l5.88 16.22h-3.94l-1.02-3.1h-5.9l-1.01 3.1h-3.74l5.86-16.22h3.87zm.06 10.46l-.98-3.03a28.85 28.85 0 0 1-.79-2.98l-.26-1.33h-.04l-.35 1.57-.37 1.4c-.12.5-.25.95-.38 1.34l-1 3.03h4.17zm4.7-10.46h13.43v3.16h-4.85v13.06h-3.74v-13.06h-4.84v-3.16zm16.18 2.12a7.52 7.52 0 0 1 2.54-1.76c1-.43 2.1-.64 3.35-.64 1.22 0 2.33.2 3.32.64a7.51 7.51 0 0 1 4.14 4.43 9.9 9.9 0 0 1 .56 3.38c0 1.21-.19 2.33-.56 3.36a7.3 7.3 0 0 1-4.14 4.45c-1 .42-2.1.63-3.32.63a8.48 8.48 0 0 1-3.35-.63 7.3 7.3 0 0 1-4.14-4.45 9.8 9.8 0 0 1-.56-3.36c0-1.22.18-2.34.56-3.38.37-1.03.9-1.92 1.6-2.67zm1.92 8.2c.18.64.45 1.21.8 1.7a3.84 3.84 0 0 0 3.19 1.54c.7 0 1.3-.14 1.83-.41.53-.28.97-.66 1.32-1.14.34-.48.6-1.05.78-1.7a8.53 8.53 0 0 0 0-4.28 5.35 5.35 0 0 0-.78-1.74 3.7 3.7 0 0 0-3.15-1.57 3.76 3.76 0 0 0-3.18 1.57c-.36.5-.63 1.07-.81 1.74a8.07 8.07 0 0 0-.28 2.14c0 .77.1 1.49.28 2.14zm20.49-32v7.61H43.6V58.7h28.56v7.6h-20.5v11.38h20.5v7.6h-20.5v11.45h20.5zm-2.81 28.02c.14.6.27 1.25.38 1.95a102.5 102.5 0 0 1 .56 4.25h.04a85 85 0 0 1 1.07-6.32l1.44-6.22h3.52l1.45 6.2a78.5 78.5 0 0 1 .72 4.02l.33 2.31h.04c.09-.75.19-1.5.3-2.24l.32-2.03c.13-.71.26-1.36.4-1.94l1.52-6.32h3.78l-4.46 16.22h-3.65l-1.58-6.8c-.11-.51-.22-1.09-.33-1.73a199.07 199.07 0 0 1-.56-3.88h-.05a108.56 108.56 0 0 1-.57 3.88c-.1.64-.2 1.22-.32 1.73l-1.6 6.8h-3.67l-4.42-16.22h3.78l1.56 6.34zm21.42 9.88h-3.74v-16.22h3.74v16.22zm4.28-14.09a7.35 7.35 0 0 1 2.51-1.77 9.26 9.26 0 0 1 5.78-.33c.76.21 1.42.53 1.97.95a5.8 5.8 0 0 1 1.74 1.96c.42.77.67 1.61.78 2.53h-3.72a3.06 3.06 0 0 0-1.04-1.9 3.28 3.28 0 0 0-2.24-.76 3.6 3.6 0 0 0-3.12 1.53 5.1 5.1 0 0 0-.77 1.7 8.25 8.25 0 0 0 .03 4.27c.2.65.47 1.22.83 1.69s.8.84 1.31 1.11c.52.27 1.1.4 1.74.4 1 0 1.8-.28 2.39-.84.58-.57.91-1.28 1-2.12H108a6.66 6.66 0 0 1-1.97 4.2 5.88 5.88 0 0 1-2.18 1.38c-.85.3-1.84.46-2.98.46a8.17 8.17 0 0 1-3.25-.63 7.38 7.38 0 0 1-4.15-4.43 9.48 9.48 0 0 1-.58-3.36c0-1.2.19-2.32.57-3.35a8.02 8.02 0 0 1 1.6-2.68zm27.08.97h-8.49v3.22H121v2.95h-7.35v3.77h8.64v3.18h-12.35v-16.22h12.2v3.1z"/>
</svg>
