<?xml version="1.0" encoding="UTF-8" standalone="no"?>
<svg
   xmlns:dc="http://purl.org/dc/elements/1.1/"
   xmlns:cc="http://creativecommons.org/ns#"
   xmlns:rdf="http://www.w3.org/1999/02/22-rdf-syntax-ns#"
   xmlns:svg="http://www.w3.org/2000/svg"
   xmlns="http://www.w3.org/2000/svg"
   height="373.79468"
   width="836.24805"
   id="Warstwa_1"
   data-name="Warstwa 1"
   viewBox="0 0 836.24803 373.79466"
   version="1.1">
  <metadata
     id="metadata84">
    <rdf:RDF>
      <cc:Work
         rdf:about="">
        <dc:format>image/svg+xml</dc:format>
        <dc:type
           rdf:resource="http://purl.org/dc/dcmitype/StillImage" />
        <dc:title>Logotyp Polskiego Radia</dc:title>
      </cc:Work>
    </rdf:RDF>
  </metadata>
  <defs
     id="defs7">
    <style
       id="style2" type="text/css">.cls-1{fill:none;}.cls-2{fill:#fff;}.cls-3{clip-path:url(#clip-path);}.cls-4{fill:#cf0a2c;}</style>
    <clipPath
       id="clip-path">
      <rect
         style="fill:none"
         class="cls-1"
         x="68.099998"
         y="160.27"
         width="715.70001"
         height="254.38"
         id="rect4" />
    </clipPath>
  </defs>
  <title
     id="title9">Logotyp Polskiego Radia</title>
  <rect
     style="fill:#ffffff"
     class="cls-2"
     x="60.627373"
     y="60.283897"
     width="715.70001"
     height="253.47"
     id="rect11" />
  <g
     transform="translate(-7.4726247,-99.986107)"
     class="cls-3"
     clip-path="url(#clip-path)"
     id="g79">
    <path
       style="fill:#cf0a2c"
       class="cls-4"
       d="m 194.4,189.34 a 97.57,97.57 0 1 0 97.44,97.57 97.5,97.5 0 0 0 -97.44,-97.57 m 0,180.67 a 83.1,83.1 0 1 1 83,-83.1 83,83 0 0 1 -83,83.1"
       id="path13" />
    <path
       style="fill:#cf0a2c"
       class="cls-4"
       d="m 194.35,219.66 a 67.28,67.28 0 1 0 67.15,67.28 67.21,67.21 0 0 0 -67.15,-67.28 m 0,120.35 a 53.06,53.06 0 1 1 53,-53.06 53,53 0 0 1 -53,53.06"
       id="path15" />
    <path
       style="fill:#cf0a2c"
       class="cls-4"
       d="m 194.35,249.54 c -19.75,0 -37.34,17.62 -37.34,37.41 0,19.79 17.59,37.41 37.34,37.41 19.75,0 37.34,-17.62 37.34,-37.41 0,-19.79 -17.59,-37.41 -37.34,-37.41 m 0,60.06 A 22.65,22.65 0 1 1 217,286.95 22.63,22.63 0 0 1 194.39,309.6"
       id="path17" />
    <path
       style="fill:#cf0a2c"
       class="cls-4"
       d="m 82.27,398.94 h 224 v -224 h -224 z m 209.3,-14.7 H 97 V 189.66 h 194.6 z"
       id="path19" />
    <rect
       style="fill:#cf0a2c"
       class="cls-4"
       x="321.07001"
       y="174.95"
       width="447.98999"
       height="224"
       id="rect21" />
    <path
       style="fill:#ffffff"
       class="cls-2"
       d="m 475.38,222.51 a 30.31,30.31 0 0 1 -4.08,43.57 c -5.61,4.33 -12.23,6.45 -20.13,6.45 -17.84,0 -31.09,-13.08 -31.09,-30.75 a 30,30 0 0 1 11.47,-23.19 32.39,32.39 0 0 1 19.87,-6.46 c 9.85,0 17.92,3.48 24,10.36 m -39.92,19.62 a 16,16 0 1 0 16,-15.71 15.93,15.93 0 0 0 -16,15.71"
       id="path23" />
    <path
       style="fill:#ffffff"
       class="cls-2"
       d="m 573.22,228.66 c -3.31,-2.63 -6.29,-3.82 -9.68,-3.82 -3.39,0 -6.29,2.12 -6.29,4.84 0,1.78 1.27,3.23 3.82,4.42 0.76,0.34 1.36,0.51 6.37,2 9.85,2.89 13.93,7.56 13.93,15.71 0,7.81 -2.55,13 -8,16.48 a 26.58,26.58 0 0 1 -14.1,3.74 34.45,34.45 0 0 1 -19.7,-6.37 l 6.29,-11.89 c 4.59,4 8.66,5.78 13,5.78 4.34,0 7.13,-2.21 7.13,-5.52 0,-3.06 -2,-4.5 -8.83,-6.54 -6.46,-1.87 -8.92,-3 -11,-4.76 -2.8,-2.46 -4.25,-6.12 -4.25,-11 0,-11.38 7.81,-19.11 19.28,-19.11 a 39.29,39.29 0 0 1 17.92,4.59 z"
       id="path25" />
    <path
       style="fill:#ffffff"
       class="cls-2"
       d="M 381.7,270.66 H 367 V 214 h 23.36 c 6.62,0 10.53,1.27 14.18,4.76 3.65,3.49 5.52,8.07 5.52,14 0,5.61 -1.61,10.45 -4.59,13.76 -3.14,3.57 -7.81,5.27 -14.61,5.27 H 381.7 Z M 386.54,240 c 5.61,0 8.15,-2.21 8.15,-7.05 0,-4.84 -2.63,-7.13 -8.07,-7.13 H 381.7 V 240 Z"
       id="path27" />
    <polygon
       style="fill:#ffffff"
       class="cls-2"
       points="496.78,214.01 511.48,214.01 511.48,258.18 529.14,258.18 529.14,270.66 496.78,270.66 "
       id="polygon29" />
    <polygon
       style="fill:#ffffff"
       class="cls-2"
       points="610.72,237.37 628.64,214.01 646.82,214.01 624.4,240.85 648.94,270.66 629.83,270.66 610.72,246.12 610.72,270.66 596.03,270.66 596.03,214.01 610.72,214.01 "
       id="polygon31" />
    <rect
       style="fill:#ffffff"
       class="cls-2"
       x="658.09003"
       y="214.17999"
       width="14.69"
       height="56.650002"
       id="rect33" />
    <polygon
       style="fill:#ffffff"
       class="cls-2"
       points="723.12,214.01 723.12,226.5 705.63,226.5 705.63,235.93 722.19,235.93 722.19,248.41 705.63,248.41 705.63,258.18 723.12,258.18 723.12,270.66 690.93,270.66 690.93,214.01 "
       id="polygon35" />
    <path
       style="fill:#ffffff"
       class="cls-2"
       d="m 414.06,359.79 h -18.35 l -14,-21.74 v 21.74 H 367 v -56.65 h 22.85 c 6.46,0 10.62,1.53 13.93,5 a 18.34,18.34 0 0 1 4.84,12.48 c 0,5.18 -2,10 -5.43,12.83 a 15.15,15.15 0 0 1 -7,3.14 z m -29.64,-31.25 c 2.8,0 4.93,-0.51 6.28,-1.53 a 6.84,6.84 0 0 0 0,-11 c -1.36,-1 -3.48,-1.53 -6.28,-1.53 h -2.72 v 14.1 z"
       id="path37" />
    <path
       style="fill:#ffffff"
       class="cls-2"
       d="m 462.23,349.94 -3.91,9.85 h -15.54 l 21.74,-56.65 h 16.05 l 21.32,56.65 h -15.7 l -3.65,-9.85 z m 10.28,-29.3 -6.2,18.09 h 12.23 z"
       id="path39" />
    <path
       style="fill:#ffffff"
       class="cls-2"
       d="m 533.15,303.14 h 21.75 c 14.95,0 27.86,13.08 27.86,28.28 0,15.2 -12.91,28.37 -27.86,28.37 h -21.75 z m 18.09,44.17 c 5.52,0 9.09,-1.44 12.06,-4.76 a 17.1,17.1 0 0 0 0,-22.17 c -3,-3.31 -6.54,-4.76 -12.06,-4.76 h -3.4 v 31.68 z"
       id="path41" />
    <rect
       style="fill:#ffffff"
       class="cls-2"
       x="615.31"
       y="303.14001"
       width="14.69"
       height="56.650002"
       id="rect43" />
    <path
       style="fill:#ffffff"
       class="cls-2"
       d="m 716.43,311.72 a 30.31,30.31 0 0 1 -4.08,43.57 c -5.61,4.33 -12.23,6.45 -20.13,6.45 -17.84,0 -31.09,-13.08 -31.09,-30.75 a 30,30 0 0 1 11.47,-23.19 32.4,32.4 0 0 1 19.88,-6.46 c 9.85,0 17.92,3.48 24,10.36 m -39.92,19.62 a 16,16 0 1 0 16,-15.71 15.93,15.93 0 0 0 -16,15.71"
       id="path45" />
    <path
       style="fill:#cf0a2c"
       class="cls-4"
       d="m 194.36,478.57 a 97.57,97.57 0 1 0 97.44,97.57 97.5,97.5 0 0 0 -97.44,-97.57 m 0,180.67 a 83.1,83.1 0 1 1 83,-83.1 83,83 0 0 1 -83,83.1"
       id="path47" />
    <path
       style="fill:#cf0a2c"
       class="cls-4"
       d="m 194.31,508.89 a 67.28,67.28 0 1 0 67.15,67.28 67.21,67.21 0 0 0 -67.15,-67.28 m 0,120.35 a 53.06,53.06 0 1 1 53,-53.07 53,53 0 0 1 -53,53.07"
       id="path49" />
    <path
       style="fill:#cf0a2c"
       class="cls-4"
       d="m 194.31,538.77 c -19.75,0 -37.34,17.62 -37.34,37.41 0,19.79 17.59,37.41 37.34,37.41 19.75,0 37.34,-17.62 37.34,-37.41 0,-19.79 -17.59,-37.41 -37.34,-37.41 m 0,60.06 a 22.65,22.65 0 1 1 22.61,-22.65 22.63,22.63 0 0 1 -22.61,22.65"
       id="path51" />
    <path
       style="fill:#cf0a2c"
       class="cls-4"
       d="m 82.23,688.17 h 224 v -224 h -224 z m 209.3,-14.7 H 96.93 V 478.88 h 194.6 z"
       id="path53" />
    <path
       style="fill:#cf0a2c"
       class="cls-4"
       d="m 475.34,511.74 a 30.31,30.31 0 0 1 -4.08,43.57 c -5.6,4.33 -12.23,6.45 -20.13,6.45 C 433.3,561.76 420,548.68 420,531 a 30,30 0 0 1 11.47,-23.19 32.39,32.39 0 0 1 19.88,-6.46 c 9.85,0 17.92,3.48 24,10.36 m -39.92,19.62 a 16,16 0 1 0 16,-15.71 15.93,15.93 0 0 0 -16,15.71"
       id="path55" />
    <path
       style="fill:#cf0a2c"
       class="cls-4"
       d="m 573.19,517.89 c -3.31,-2.63 -6.29,-3.82 -9.68,-3.82 -3.39,0 -6.29,2.12 -6.29,4.84 0,1.78 1.27,3.23 3.82,4.42 0.77,0.34 1.36,0.51 6.37,2 9.85,2.89 13.93,7.56 13.93,15.71 0,7.82 -2.55,13 -8,16.48 a 26.59,26.59 0 0 1 -14.1,3.74 34.45,34.45 0 0 1 -19.7,-6.37 l 6.3,-11.89 c 4.59,4 8.66,5.78 13,5.78 4.34,0 7.14,-2.21 7.14,-5.52 0,-3.06 -2,-4.5 -8.83,-6.54 -6.46,-1.87 -8.92,-3 -11,-4.76 -2.8,-2.46 -4.25,-6.12 -4.25,-11 0,-11.38 7.81,-19.11 19.28,-19.11 a 39.31,39.31 0 0 1 17.82,4.58 z"
       id="path57" />
    <path
       style="fill:#cf0a2c"
       class="cls-4"
       d="M 381.66,559.89 H 367 v -56.65 h 23.36 c 6.63,0 10.53,1.27 14.18,4.76 3.65,3.49 5.52,8.07 5.52,14 0,5.61 -1.61,10.45 -4.59,13.76 -3.14,3.57 -7.81,5.27 -14.61,5.27 h -9.17 z m 4.84,-30.66 c 5.61,0 8.15,-2.21 8.15,-7 0,-4.79 -2.65,-7.23 -8.06,-7.23 h -4.93 v 14.18 z"
       id="path59" />
    <polygon
       style="fill:#cf0a2c"
       class="cls-4"
       points="496.74,503.24 511.44,503.24 511.44,547.41 529.1,547.41 529.1,559.89 496.74,559.89 "
       id="polygon61" />
    <polygon
       style="fill:#cf0a2c"
       class="cls-4"
       points="610.68,526.6 628.61,503.24 646.78,503.24 624.36,530.08 648.9,559.89 629.79,559.89 610.68,535.35 610.68,559.89 595.99,559.89 595.99,503.24 610.68,503.24 "
       id="polygon63" />
    <rect
       style="fill:#cf0a2c"
       class="cls-4"
       x="658.06"
       y="503.41"
       width="14.69"
       height="56.650002"
       id="rect65" />
    <polygon
       style="fill:#cf0a2c"
       class="cls-4"
       points="723.09,503.24 723.09,515.73 705.59,515.73 705.59,525.15 722.15,525.15 722.15,537.64 705.59,537.64 705.59,547.41 723.09,547.41 723.09,559.89 690.9,559.89 690.9,503.24 "
       id="polygon67" />
    <path
       style="fill:#cf0a2c"
       class="cls-4"
       d="m 414,649 h -18.33 l -14,-21.74 V 649 H 367 v -56.63 h 22.85 c 6.46,0 10.62,1.53 13.93,5 a 18.34,18.34 0 0 1 4.84,12.49 c 0,5.18 -2,10 -5.43,12.82 a 15.16,15.16 0 0 1 -7,3.14 z m -29.64,-31.25 c 2.8,0 4.93,-0.51 6.29,-1.53 a 6.84,6.84 0 0 0 0,-11 c -1.36,-1 -3.48,-1.53 -6.29,-1.53 h -2.72 v 14.1 z"
       id="path69" />
    <path
       style="fill:#cf0a2c"
       class="cls-4"
       d="m 462.2,639.17 -3.91,9.83 h -15.54 l 21.74,-56.65 h 16.05 L 501.86,649 h -15.71 l -3.65,-9.85 z m 10.28,-29.3 -6.21,18.13 h 12.23 z"
       id="path71" />
    <path
       style="fill:#cf0a2c"
       class="cls-4"
       d="m 533.11,592.37 h 21.74 c 15,0 27.86,13.08 27.86,28.28 0,15.2 -12.9,28.35 -27.85,28.35 h -21.75 z m 18.09,44.17 c 5.52,0 9.09,-1.44 12.06,-4.76 a 17.1,17.1 0 0 0 0,-22.17 c -3,-3.31 -6.54,-4.76 -12.06,-4.76 h -3.4 v 31.68 z"
       id="path73" />
    <rect
       style="fill:#cf0a2c"
       class="cls-4"
       x="615.27002"
       y="592.37"
       width="14.69"
       height="56.650002"
       id="rect75" />
    <path
       style="fill:#cf0a2c"
       class="cls-4"
       d="m 716.39,601 a 30.3,30.3 0 0 1 -4.08,43.57 c -5.6,4.33 -12.23,6.46 -20.13,6.46 -17.84,0 -31.09,-13.08 -31.09,-30.75 a 30,30 0 0 1 11.47,-23.28 32.4,32.4 0 0 1 19.88,-6.46 c 9.85,0 17.92,3.48 24,10.36 m -39.92,19.62 a 16,16 0 1 0 16,-15.71 15.93,15.93 0 0 0 -16,15.71"
       id="path77" />
  </g>
</svg>
